<svg width="25" height="25" viewBox="0 0 25 25" fill="none" xmlns="http://www.w3.org/2000/svg">
<path fill-rule="evenodd" clip-rule="evenodd" d="M16.4653 21.1354C15.2585 21.6905 13.9154 22 12.5 22C7.2533 22 3 17.7467 3 12.5C3 11.4742 3.1626 10.4863 3.46344 9.56073C8.01932 9.89667 11.1526 10.9692 13.1826 12.8011C15.1028 14.5339 16.2557 17.1516 16.4653 21.1354ZM19.2943 19.1398C19.1903 18.3469 19.046 17.5902 18.8597 16.8701L20.1936 14.3093C20.4487 13.8194 20.2585 13.2155 19.7687 12.9604L18.8118 12.4619C18.322 12.2068 17.718 12.397 17.4629 12.8869L17.3247 13.1523C17.1453 12.8572 16.9542 12.5717 16.7512 12.2957L17.7859 10.3093C18.041 9.81943 17.8508 9.21552 17.361 8.96039L16.4041 8.46194C15.9142 8.20682 15.3103 8.39703 15.0552 8.88687L14.4841 9.98318C14.2209 9.7804 13.9484 9.58774 13.6668 9.40485L15.2793 6.30927C15.5345 5.81943 15.3442 5.21552 14.8544 4.96039L13.8975 4.46194C13.4077 4.20682 12.8038 4.39703 12.5486 4.88687L10.915 8.02301C10.6216 7.91095 10.3215 7.80557 10.0149 7.70673L10.2219 7.30927C10.4771 6.81943 10.2868 6.21552 9.797 5.96039L8.84012 5.46194C8.35028 5.20682 7.74637 5.39703 7.49124 5.88687L6.93231 6.95987C6.30359 6.85049 5.65439 6.76004 4.98538 6.68713C6.72308 4.444 9.4429 3 12.5 3C17.7467 3 22 7.2533 22 12.5C22 15.084 20.9683 17.4271 19.2943 19.1398ZM25 12.5C25 19.4036 19.4036 25 12.5 25C5.59644 25 0 19.4036 0 12.5C0 5.59644 5.59644 0 12.5 0C19.4036 0 25 5.59644 25 12.5Z" fill="#1E1E1E"/>
</svg>
