<svg width="188" height="55" viewBox="0 0 188 55" fill="none" xmlns="http://www.w3.org/2000/svg">
<path fill-rule="evenodd" clip-rule="evenodd" d="M34.4579 47.8492C32.2756 48.5952 29.9351 49 27.5 49C15.6259 49 6 39.3741 6 27.5C6 25.6356 6.23731 23.8266 6.68336 22.1017C15.8715 22.9579 22.4546 25.2254 26.854 28.9888C31.3606 32.8438 34.0924 38.7274 34.4579 47.8492ZM41.1959 44.074C41.013 42.3824 40.747 40.7633 40.3957 39.2167C40.4003 39.2084 40.4048 39.2001 40.4092 39.1916L44.9803 30.4162C45.2355 29.9263 45.0452 29.3224 44.5554 29.0673L40.3217 26.862C39.8319 26.6068 39.228 26.7971 38.9729 27.2869L37.1903 30.709C36.8095 30.0336 36.4026 29.3794 35.9693 28.7464L39.6834 21.6162C39.9385 21.1263 39.7483 20.5224 39.2584 20.2673L35.0248 18.062C34.535 17.8068 33.931 17.9971 33.6759 18.4869L31.1069 23.4188C30.5402 22.948 29.9534 22.4998 29.3469 22.0732L34.1688 12.8162C34.424 12.3263 34.2338 11.7224 33.7439 11.4673L29.5103 9.26198C29.0204 9.00683 28.4165 9.19707 28.1614 9.68689L23.4073 18.8136C22.7726 18.5452 22.1236 18.2919 21.4607 18.0531L23.0426 15.0162C23.2978 14.5263 23.1075 13.9224 22.6177 13.6673L18.384 11.462C17.8942 11.2068 17.2903 11.3971 17.0352 11.8869L14.7834 16.2097C13.1592 15.8781 11.4742 15.6071 9.73156 15.3913C13.6027 9.72161 20.1168 6 27.5 6C39.3741 6 49 15.6259 49 27.5C49 34.1699 45.9627 40.1305 41.1959 44.074ZM55 27.5C55 42.6878 42.6878 55 27.5 55C12.3122 55 0 42.6878 0 27.5C0 12.3122 12.3122 0 27.5 0C42.6878 0 55 12.3122 55 27.5Z" fill="#F5F5F5"/>
<path d="M85.09 38.33C83.51 38.33 82.04 38.06 80.68 37.52C79.34 36.96 78.16 36.18 77.14 35.18C76.14 34.18 75.36 33.02 74.8 31.7C74.24 30.36 73.96 28.92 73.96 27.38C73.96 25.84 74.24 24.41 74.8 23.09C75.36 21.75 76.14 20.59 77.14 19.61C78.14 18.63 79.31 17.87 80.65 17.33C82.01 16.77 83.48 16.49 85.06 16.49C86.74 16.49 88.23 16.76 89.53 17.3C90.85 17.84 92 18.58 92.98 19.52L89.83 22.7C89.27 22.1 88.59 21.63 87.79 21.29C87.01 20.95 86.1 20.78 85.06 20.78C84.14 20.78 83.29 20.94 82.51 21.26C81.75 21.56 81.09 22 80.53 22.58C79.99 23.16 79.56 23.86 79.24 24.68C78.94 25.5 78.79 26.4 78.79 27.38C78.79 28.38 78.94 29.29 79.24 30.11C79.56 30.93 79.99 31.63 80.53 32.21C81.09 32.79 81.75 33.24 82.51 33.56C83.29 33.88 84.14 34.04 85.06 34.04C86.14 34.04 87.08 33.87 87.88 33.53C88.68 33.19 89.37 32.72 89.95 32.12L93.13 35.3C92.11 36.24 90.94 36.98 89.62 37.52C88.32 38.06 86.81 38.33 85.09 38.33ZM101.972 38.33C100.472 38.33 99.112 38 97.892 37.34C96.692 36.66 95.742 35.74 95.042 34.58C94.342 33.42 93.992 32.12 93.992 30.68C93.992 29.24 94.342 27.95 95.042 26.81C95.742 25.67 96.692 24.77 97.892 24.11C99.092 23.43 100.452 23.09 101.972 23.09C103.492 23.09 104.852 23.42 106.052 24.08C107.252 24.74 108.202 25.65 108.902 26.81C109.602 27.95 109.952 29.24 109.952 30.68C109.952 32.12 109.602 33.42 108.902 34.58C108.202 35.74 107.252 36.66 106.052 37.34C104.852 38 103.492 38.33 101.972 38.33ZM101.972 34.16C102.632 34.16 103.212 34.02 103.712 33.74C104.212 33.44 104.592 33.03 104.852 32.51C105.132 31.97 105.272 31.36 105.272 30.68C105.272 30 105.132 29.41 104.852 28.91C104.572 28.39 104.182 27.99 103.682 27.71C103.202 27.41 102.632 27.26 101.972 27.26C101.332 27.26 100.762 27.41 100.262 27.71C99.762 27.99 99.372 28.39 99.092 28.91C98.812 29.43 98.672 30.03 98.672 30.71C98.672 31.37 98.812 31.97 99.092 32.51C99.372 33.03 99.762 33.44 100.262 33.74C100.762 34.02 101.332 34.16 101.972 34.16ZM121.867 38V29.69C121.867 28.93 121.627 28.32 121.147 27.86C120.687 27.38 120.097 27.14 119.377 27.14C118.877 27.14 118.437 27.25 118.057 27.47C117.677 27.67 117.377 27.97 117.157 28.37C116.937 28.75 116.827 29.19 116.827 29.69L115.057 28.82C115.057 27.68 115.307 26.68 115.807 25.82C116.307 24.96 116.997 24.3 117.877 23.84C118.777 23.36 119.787 23.12 120.907 23.12C121.987 23.12 122.937 23.38 123.757 23.9C124.597 24.4 125.257 25.07 125.737 25.91C126.217 26.75 126.457 27.67 126.457 28.67V38H121.867ZM112.237 38V23.42H116.827V38H112.237ZM136.425 38.33C134.925 38.33 133.565 38 132.345 37.34C131.145 36.66 130.195 35.74 129.495 34.58C128.795 33.42 128.445 32.12 128.445 30.68C128.445 29.24 128.795 27.95 129.495 26.81C130.195 25.67 131.145 24.77 132.345 24.11C133.545 23.43 134.905 23.09 136.425 23.09C137.945 23.09 139.305 23.42 140.505 24.08C141.705 24.74 142.655 25.65 143.355 26.81C144.055 27.95 144.405 29.24 144.405 30.68C144.405 32.12 144.055 33.42 143.355 34.58C142.655 35.74 141.705 36.66 140.505 37.34C139.305 38 137.945 38.33 136.425 38.33ZM136.425 34.16C137.085 34.16 137.665 34.02 138.165 33.74C138.665 33.44 139.045 33.03 139.305 32.51C139.585 31.97 139.725 31.36 139.725 30.68C139.725 30 139.585 29.41 139.305 28.91C139.025 28.39 138.635 27.99 138.135 27.71C137.655 27.41 137.085 27.26 136.425 27.26C135.785 27.26 135.215 27.41 134.715 27.71C134.215 27.99 133.825 28.39 133.545 28.91C133.265 29.43 133.125 30.03 133.125 30.71C133.125 31.37 133.265 31.97 133.545 32.51C133.825 33.03 134.215 33.44 134.715 33.74C135.215 34.02 135.785 34.16 136.425 34.16ZM146.69 38V23.42H151.28V38H146.69ZM156.02 38V29.48C156.02 28.74 155.79 28.17 155.33 27.77C154.89 27.35 154.34 27.14 153.68 27.14C153.22 27.14 152.81 27.24 152.45 27.44C152.09 27.62 151.8 27.88 151.58 28.22C151.38 28.56 151.28 28.98 151.28 29.48L149.51 28.7C149.51 27.54 149.76 26.55 150.26 25.73C150.76 24.89 151.44 24.25 152.3 23.81C153.16 23.35 154.13 23.12 155.21 23.12C156.23 23.12 157.14 23.35 157.94 23.81C158.76 24.27 159.41 24.91 159.89 25.73C160.37 26.55 160.61 27.53 160.61 28.67V38H156.02ZM165.35 38V29.48C165.35 28.74 165.12 28.17 164.66 27.77C164.22 27.35 163.67 27.14 163.01 27.14C162.55 27.14 162.14 27.24 161.78 27.44C161.42 27.62 161.13 27.88 160.91 28.22C160.71 28.56 160.61 28.98 160.61 29.48L157.97 29.12C158.01 27.88 158.3 26.82 158.84 25.94C159.4 25.04 160.13 24.35 161.03 23.87C161.95 23.37 162.98 23.12 164.12 23.12C165.24 23.12 166.23 23.36 167.09 23.84C167.97 24.3 168.66 24.97 169.16 25.85C169.68 26.71 169.94 27.75 169.94 28.97V38H165.35ZM177.382 38.06L171.382 23.42H176.332L180.142 35.03H178.312L182.212 23.42H187.162L180.922 38.06H177.382ZM173.632 44.15L178.012 34.7L180.922 38.06L178.342 44.15H173.632Z" fill="#F5F5F5"/>
</svg>
