<svg width="25" height="25" viewBox="0 0 25 25" fill="none" xmlns="http://www.w3.org/2000/svg">
<path fill-rule="evenodd" clip-rule="evenodd" d="M16.4653 21.1354C15.2585 21.6905 13.9154 22 12.5 22C7.25329 22 3 17.7467 3 12.5C3 11.4741 3.1626 10.4863 3.46343 9.56075C8.01931 9.89668 11.1526 10.9692 13.1826 12.8011C15.1028 14.5339 16.2557 17.1516 16.4653 21.1354ZM19.2943 19.1398C19.1903 18.3469 19.046 17.5902 18.8597 16.87L20.1936 14.3093C20.4487 13.8194 20.2585 13.2155 19.7687 12.9604L18.8118 12.4619C18.322 12.2068 17.7181 12.397 17.4629 12.8869L17.3247 13.1523C17.1453 12.8572 16.9542 12.5717 16.7512 12.2956L17.7859 10.3093C18.041 9.81944 17.8508 9.21553 17.361 8.96038L16.4041 8.46194C15.9143 8.2068 15.3103 8.39704 15.0552 8.88686L14.4841 9.98319C14.2209 9.7804 13.9484 9.58774 13.6668 9.40485L15.2793 6.30925C15.5344 5.81944 15.3442 5.21553 14.8544 4.96038L13.8975 4.46195C13.4077 4.2068 12.8038 4.39704 12.5486 4.88686L10.915 8.02301C10.6216 7.91093 10.3215 7.80559 10.0148 7.70674L10.2219 7.30925C10.477 6.81944 10.2868 6.21553 9.79699 5.96038L8.84011 5.46195C8.35029 5.2068 7.74638 5.39704 7.49124 5.88686L6.93231 6.95987C6.30357 6.85049 5.65439 6.76005 4.9854 6.68713C6.7231 4.444 9.44292 3 12.5 3C17.7467 3 22 7.25329 22 12.5C22 15.0841 20.9683 17.4271 19.2943 19.1398ZM25 12.5C25 19.4036 19.4036 25 12.5 25C5.59644 25 0 19.4036 0 12.5C0 5.59644 5.59644 0 12.5 0C19.4036 0 25 5.59644 25 12.5Z" fill="#FAFAFA"/>
</svg>
