<svg width="78" height="25" viewBox="0 0 78 25" fill="none" xmlns="http://www.w3.org/2000/svg">
<path fill-rule="evenodd" clip-rule="evenodd" d="M16.4653 21.1354C15.2585 21.6905 13.9154 22 12.5 22C7.25329 22 3 17.7467 3 12.5C3 11.4741 3.1626 10.4863 3.46344 9.56074C8.01931 9.89668 11.1526 10.9692 13.1826 12.8011C15.1028 14.5339 16.2557 17.1516 16.4653 21.1354ZM19.2943 19.1398C19.1903 18.3469 19.046 17.5902 18.8597 16.8701L20.1936 14.3093C20.4487 13.8194 20.2585 13.2155 19.7687 12.9604L18.8118 12.4619C18.322 12.2068 17.718 12.397 17.4629 12.8869L17.3247 13.1522C17.1453 12.8572 16.9542 12.5717 16.7512 12.2957L17.7859 10.3093C18.041 9.81942 17.8508 9.21551 17.361 8.96038L16.4041 8.46194C15.9142 8.20681 15.3103 8.39703 15.0552 8.88687L14.4841 9.98318C14.2209 9.78039 13.9484 9.58773 13.6668 9.40484L15.2793 6.30926C15.5345 5.81942 15.3442 5.21551 14.8544 4.96038L13.8975 4.46194C13.4077 4.20681 12.8038 4.39703 12.5486 4.88687L10.915 8.02301C10.6216 7.91095 10.3215 7.80557 10.0149 7.70672L10.2219 7.30926C10.4771 6.81942 10.2868 6.21551 9.797 5.96038L8.84012 5.46194C8.35028 5.20681 7.74637 5.39703 7.49124 5.88687L6.93231 6.95987C6.30358 6.85049 5.65439 6.76005 4.9854 6.68714C6.7231 4.444 9.44292 3 12.5 3C17.7467 3 22 7.25329 22 12.5C22 15.0841 20.9683 17.4271 19.2943 19.1398ZM25 12.5C25 19.4036 19.4036 25 12.5 25C5.59644 25 0 19.4036 0 12.5C0 5.59644 5.59644 0 12.5 0C19.4036 0 25 5.59644 25 12.5Z" fill="#212121"/>
<path d="M36.776 17.12C36.16 17.12 35.588 17.012 35.06 16.796C34.532 16.572 34.068 16.264 33.668 15.872C33.276 15.472 32.972 15.008 32.756 14.48C32.548 13.952 32.444 13.384 32.444 12.776C32.444 12.168 32.548 11.6 32.756 11.072C32.972 10.544 33.276 10.084 33.668 9.692C34.068 9.3 34.528 8.992 35.048 8.768C35.576 8.544 36.152 8.432 36.776 8.432C37.448 8.432 38.04 8.544 38.552 8.768C39.064 8.984 39.516 9.284 39.908 9.668L38.804 10.772C38.572 10.516 38.288 10.316 37.952 10.172C37.616 10.028 37.224 9.956 36.776 9.956C36.384 9.956 36.024 10.024 35.696 10.16C35.376 10.288 35.096 10.48 34.856 10.736C34.616 10.984 34.432 11.284 34.304 11.636C34.176 11.98 34.112 12.36 34.112 12.776C34.112 13.2 34.176 13.584 34.304 13.928C34.432 14.272 34.616 14.572 34.856 14.828C35.096 15.076 35.376 15.268 35.696 15.404C36.024 15.54 36.384 15.608 36.776 15.608C37.248 15.608 37.652 15.536 37.988 15.392C38.332 15.248 38.62 15.044 38.852 14.78L39.956 15.884C39.564 16.276 39.108 16.58 38.588 16.796C38.068 17.012 37.464 17.12 36.776 17.12ZM43.4942 17.12C42.9102 17.12 42.3822 16.988 41.9102 16.724C41.4462 16.452 41.0742 16.088 40.7942 15.632C40.5222 15.168 40.3862 14.652 40.3862 14.084C40.3862 13.516 40.5222 13.008 40.7942 12.56C41.0662 12.104 41.4382 11.744 41.9102 11.48C42.3822 11.208 42.9062 11.072 43.4822 11.072C44.0742 11.072 44.6022 11.208 45.0662 11.48C45.5382 11.744 45.9102 12.104 46.1822 12.56C46.4542 13.008 46.5902 13.516 46.5902 14.084C46.5902 14.652 46.4542 15.168 46.1822 15.632C45.9102 16.088 45.5382 16.452 45.0662 16.724C44.6022 16.988 44.0782 17.12 43.4942 17.12ZM43.4822 15.656C43.7782 15.656 44.0382 15.592 44.2622 15.464C44.4942 15.328 44.6702 15.144 44.7902 14.912C44.9182 14.672 44.9822 14.4 44.9822 14.096C44.9822 13.792 44.9182 13.524 44.7902 13.292C44.6622 13.06 44.4862 12.88 44.2622 12.752C44.0382 12.616 43.7782 12.548 43.4822 12.548C43.1942 12.548 42.9382 12.616 42.7142 12.752C42.4902 12.88 42.3142 13.06 42.1862 13.292C42.0582 13.524 41.9942 13.792 41.9942 14.096C41.9942 14.4 42.0582 14.672 42.1862 14.912C42.3142 15.144 42.4902 15.328 42.7142 15.464C42.9382 15.592 43.1942 15.656 43.4822 15.656ZM51.5023 17V13.676C51.5023 13.332 51.3943 13.052 51.1783 12.836C50.9623 12.62 50.6823 12.512 50.3383 12.512C50.1143 12.512 49.9143 12.56 49.7383 12.656C49.5623 12.752 49.4223 12.888 49.3183 13.064C49.2223 13.24 49.1743 13.444 49.1743 13.676L48.5623 13.364C48.5623 12.908 48.6583 12.512 48.8503 12.176C49.0503 11.832 49.3223 11.564 49.6663 11.372C50.0183 11.18 50.4143 11.084 50.8543 11.084C51.2783 11.084 51.6583 11.192 51.9943 11.408C52.3303 11.616 52.5943 11.892 52.7863 12.236C52.9783 12.572 53.0742 12.936 53.0742 13.328V17H51.5023ZM47.6023 17V11.204H49.1743V17H47.6023ZM57.0645 17.12C56.4805 17.12 55.9525 16.988 55.4805 16.724C55.0165 16.452 54.6445 16.088 54.3645 15.632C54.0925 15.168 53.9565 14.652 53.9565 14.084C53.9565 13.516 54.0925 13.008 54.3645 12.56C54.6365 12.104 55.0085 11.744 55.4805 11.48C55.9525 11.208 56.4765 11.072 57.0525 11.072C57.6445 11.072 58.1725 11.208 58.6365 11.48C59.1085 11.744 59.4805 12.104 59.7525 12.56C60.0245 13.008 60.1605 13.516 60.1605 14.084C60.1605 14.652 60.0245 15.168 59.7525 15.632C59.4805 16.088 59.1085 16.452 58.6365 16.724C58.1725 16.988 57.6485 17.12 57.0645 17.12ZM57.0525 15.656C57.3485 15.656 57.6085 15.592 57.8325 15.464C58.0645 15.328 58.2405 15.144 58.3605 14.912C58.4885 14.672 58.5525 14.4 58.5525 14.096C58.5525 13.792 58.4885 13.524 58.3605 13.292C58.2325 13.06 58.0565 12.88 57.8325 12.752C57.6085 12.616 57.3485 12.548 57.0525 12.548C56.7645 12.548 56.5085 12.616 56.2845 12.752C56.0605 12.88 55.8845 13.06 55.7565 13.292C55.6285 13.524 55.5645 13.792 55.5645 14.096C55.5645 14.4 55.6285 14.672 55.7565 14.912C55.8845 15.144 56.0605 15.328 56.2845 15.464C56.5085 15.592 56.7645 15.656 57.0525 15.656ZM61.1726 17V11.204H62.7446V17H61.1726ZM64.9526 17V13.58C64.9526 13.244 64.8446 12.984 64.6286 12.8C64.4206 12.608 64.1606 12.512 63.8486 12.512C63.6406 12.512 63.4526 12.556 63.2846 12.644C63.1166 12.724 62.9846 12.844 62.8886 13.004C62.7926 13.164 62.7446 13.356 62.7446 13.58L62.1326 13.28C62.1326 12.832 62.2286 12.444 62.4206 12.116C62.6206 11.788 62.8886 11.536 63.2246 11.36C63.5606 11.176 63.9406 11.084 64.3646 11.084C64.7646 11.084 65.1286 11.176 65.4566 11.36C65.7846 11.536 66.0446 11.788 66.2366 12.116C66.4286 12.436 66.5246 12.824 66.5246 13.28V17H64.9526ZM68.7326 17V13.58C68.7326 13.244 68.6246 12.984 68.4086 12.8C68.2006 12.608 67.9406 12.512 67.6286 12.512C67.4286 12.512 67.2406 12.556 67.0646 12.644C66.8966 12.724 66.7646 12.844 66.6686 13.004C66.5726 13.164 66.5246 13.356 66.5246 13.58L65.6246 13.364C65.6566 12.9 65.7806 12.5 65.9966 12.164C66.2126 11.82 66.4966 11.556 66.8486 11.372C67.2006 11.18 67.5926 11.084 68.0246 11.084C68.4566 11.084 68.8446 11.176 69.1886 11.36C69.5326 11.536 69.8046 11.792 70.0046 12.128C70.2046 12.464 70.3046 12.864 70.3046 13.328V17H68.7326ZM73.4028 17.048L70.9788 11.204H72.6828L74.2908 15.668H73.7148L75.3828 11.204H77.0988L74.5188 17.036L73.4028 17.048ZM71.7948 19.424L73.5588 15.692L74.5188 17.036L73.4628 19.424H71.7948Z" fill="#212121"/>
</svg>
