<svg width="74" height="49" fill="none" xmlns="http://www.w3.org/2000/svg"><g clip-path="url(#Exclude 2__a)"><mask id="Exclude 2__b" style="mask-type:alpha" maskUnits="userSpaceOnUse" x="0" y="0" width="74" height="49"><path fill-rule="evenodd" clip-rule="evenodd" d="M29.95 39.075a15.46 15.46 0 0 1-5.53 1.016c-8.583 0-15.54-6.98-15.54-15.591 0-8.61 6.957-15.59 15.54-15.59 1.947 0 3.811.359 5.53 1.015A24.444 24.444 0 0 0 25.16 24.5c0 5.46 1.78 10.502 4.79 14.575ZM37 45.503A24.248 24.248 0 0 1 24.42 49C10.933 49 0 38.031 0 24.5S10.933 0 24.42 0C29.021 0 33.326 1.277 37 3.497a24.578 24.578 0 0 0-7.05 6.428A15.595 15.595 0 0 1 39.96 24.5a15.595 15.595 0 0 1-10.01 14.575A24.577 24.577 0 0 0 37 45.503Zm0 0A24.248 24.248 0 0 0 49.58 49C63.067 49 74 38.031 74 24.5S63.067 0 49.58 0A24.247 24.247 0 0 0 37 3.497C44.095 7.783 48.84 15.586 48.84 24.5S44.095 41.217 37 45.503Z" fill="#fff"/></mask><g mask="url(#Exclude 2__b)"><path d="M24.42 49a24.31 24.31 0 0 0 8.69-1.6l-6.321-16.65a6.604 6.604 0 0 1-2.369.432V49ZM0 24.5C0 38.031 10.933 49 24.42 49V31.182c-3.678 0-6.66-2.992-6.66-6.682H0ZM24.42 0C10.933 0 0 10.97 0 24.5h17.76c0-3.69 2.982-6.682 6.66-6.682V0Zm8.69 1.6A24.314 24.314 0 0 0 24.42 0v17.818c.85 0 1.645.156 2.369.433l6.32-16.652Zm.93 22.9c0-3.485 1.13-6.68 3.043-9.27L22.816 4.62A33.371 33.371 0 0 0 16.28 24.5h17.76Zm3.043 9.27a15.515 15.515 0 0 1-3.043-9.27H16.28a33.37 33.37 0 0 0 6.535 19.88l14.268-10.61ZM24.42 57.91c6.26 0 12.143-1.743 17.161-4.775l-9.162-15.264a15.388 15.388 0 0 1-7.999 2.22v17.818ZM-8.88 24.5c0 18.451 14.909 33.41 33.3 33.41V40.09c-8.583 0-15.54-6.98-15.54-15.59H-8.88Zm33.3-33.41C6.029-8.91-8.88 6.05-8.88 24.5H8.88c0-8.61 6.957-15.59 15.54-15.59V-8.91Zm17.161 4.775A33.104 33.104 0 0 0 24.42-8.91V8.909c2.942 0 5.669.812 7.999 2.22L41.58-4.135ZM37.083 15.23a15.685 15.685 0 0 1 4.498-4.101L32.419-4.135a33.468 33.468 0 0 0-9.603 8.755l14.267 10.61ZM48.84 24.5c0-10.475-6.548-19.392-15.73-22.9l-6.321 16.65a6.687 6.687 0 0 1 4.291 6.25h17.76ZM33.11 47.4c9.182-3.507 15.73-12.425 15.73-22.9H31.08a6.687 6.687 0 0 1-4.291 6.25l6.32 16.65Zm8.471-9.529a15.685 15.685 0 0 1-4.498-4.101L22.816 44.38a33.467 33.467 0 0 0 9.603 8.755l9.162-15.264Zm7.999 2.22c-2.942 0-5.669-.812-7.999-2.22l-9.162 15.264A33.105 33.105 0 0 0 49.58 57.91V40.091ZM65.12 24.5c0 8.61-6.958 15.59-15.54 15.59v17.82c18.391 0 33.3-14.959 33.3-33.41H65.12ZM49.58 8.91c8.583 0 15.54 6.98 15.54 15.59h17.76c0-18.451-14.909-33.41-33.3-33.41V8.91Zm-7.999 2.219a15.39 15.39 0 0 1 7.999-2.22V-8.909a33.105 33.105 0 0 0-17.161 4.774l9.162 15.264ZM57.72 24.5c0-12.166-6.488-22.804-16.139-28.635l-9.162 15.264A15.588 15.588 0 0 1 39.96 24.5h17.76ZM41.581 53.135C51.232 47.305 57.72 36.667 57.72 24.5H39.96c0 5.662-3.003 10.63-7.541 13.371l9.162 15.264Z" fill="#79E3AA"/></g></g><defs><clipPath id="Exclude 2__a"><path fill="#fff" d="M0 0h74v49H0z"/></clipPath></defs></svg>